<svg width="179" height="105" viewBox="0 0 179 105" fill="none" xmlns="http://www.w3.org/2000/svg">
<path d="M5.436 43.0497C6.768 43.0497 7.932 43.3077 8.928 43.8237C9.936 44.3277 10.71 45.0597 11.25 46.0197C11.802 46.9677 12.078 48.0777 12.078 49.3497C12.078 50.6217 11.802 51.7257 11.25 52.6617C10.71 53.5977 9.936 54.3177 8.928 54.8217C7.932 55.3137 6.768 55.5597 5.436 55.5597H1.35V43.0497H5.436ZM5.436 53.8857C6.9 53.8857 8.022 53.4897 8.802 52.6977C9.582 51.9057 9.972 50.7897 9.972 49.3497C9.972 47.8977 9.582 46.7637 8.802 45.9477C8.022 45.1317 6.9 44.7237 5.436 44.7237H3.402V53.8857H5.436ZM23.2017 50.3577C23.2017 50.7297 23.1777 51.0657 23.1297 51.3657H15.5517C15.6117 52.1577 15.9057 52.7937 16.4337 53.2737C16.9617 53.7537 17.6097 53.9937 18.3777 53.9937C19.4817 53.9937 20.2617 53.5317 20.7177 52.6077H22.9317C22.6317 53.5197 22.0857 54.2697 21.2937 54.8577C20.5137 55.4337 19.5417 55.7217 18.3777 55.7217C17.4297 55.7217 16.5777 55.5117 15.8217 55.0917C15.0777 54.6597 14.4897 54.0597 14.0577 53.2917C13.6377 52.5117 13.4277 51.6117 13.4277 50.5917C13.4277 49.5717 13.6317 48.6777 14.0397 47.9097C14.4597 47.1297 15.0417 46.5297 15.7857 46.1097C16.5417 45.6897 17.4057 45.4797 18.3777 45.4797C19.3137 45.4797 20.1477 45.6837 20.8797 46.0917C21.6117 46.4997 22.1817 47.0757 22.5897 47.8197C22.9977 48.5517 23.2017 49.3977 23.2017 50.3577ZM21.0597 49.7097C21.0477 48.9537 20.7777 48.3477 20.2497 47.8917C19.7217 47.4357 19.0677 47.2077 18.2877 47.2077C17.5797 47.2077 16.9737 47.4357 16.4697 47.8917C15.9657 48.3357 15.6657 48.9417 15.5697 49.7097H21.0597ZM37.2271 45.4797C38.0071 45.4797 38.7031 45.6417 39.3151 45.9657C39.9391 46.2897 40.4251 46.7697 40.7731 47.4057C41.1331 48.0417 41.3131 48.8097 41.3131 49.7097V55.5597H39.2791V50.0157C39.2791 49.1277 39.0571 48.4497 38.6131 47.9817C38.1691 47.5017 37.5631 47.2617 36.7951 47.2617C36.0271 47.2617 35.4151 47.5017 34.9591 47.9817C34.5151 48.4497 34.2931 49.1277 34.2931 50.0157V55.5597H32.2591V50.0157C32.2591 49.1277 32.0371 48.4497 31.5931 47.9817C31.1491 47.5017 30.5431 47.2617 29.7751 47.2617C29.0071 47.2617 28.3951 47.5017 27.9391 47.9817C27.4951 48.4497 27.2731 49.1277 27.2731 50.0157V55.5597H25.2211V45.6417H27.2731V46.7757C27.6091 46.3677 28.0351 46.0497 28.5511 45.8217C29.0671 45.5937 29.6191 45.4797 30.2071 45.4797C30.9991 45.4797 31.7071 45.6477 32.3311 45.9837C32.9551 46.3197 33.4351 46.8057 33.7711 47.4417C34.0711 46.8417 34.5391 46.3677 35.1751 46.0197C35.8111 45.6597 36.4951 45.4797 37.2271 45.4797ZM48.2262 55.7217C47.2902 55.7217 46.4442 55.5117 45.6882 55.0917C44.9322 54.6597 44.3382 54.0597 43.9062 53.2917C43.4742 52.5117 43.2582 51.6117 43.2582 50.5917C43.2582 49.5837 43.4802 48.6897 43.9242 47.9097C44.3682 47.1297 44.9742 46.5297 45.7422 46.1097C46.5102 45.6897 47.3682 45.4797 48.3162 45.4797C49.2642 45.4797 50.1222 45.6897 50.8902 46.1097C51.6582 46.5297 52.2642 47.1297 52.7082 47.9097C53.1522 48.6897 53.3742 49.5837 53.3742 50.5917C53.3742 51.5997 53.1462 52.4937 52.6902 53.2737C52.2342 54.0537 51.6102 54.6597 50.8182 55.0917C50.0382 55.5117 49.1742 55.7217 48.2262 55.7217ZM48.2262 53.9397C48.7542 53.9397 49.2462 53.8137 49.7022 53.5617C50.1702 53.3097 50.5482 52.9317 50.8362 52.4277C51.1242 51.9237 51.2682 51.3117 51.2682 50.5917C51.2682 49.8717 51.1302 49.2657 50.8542 48.7737C50.5782 48.2697 50.2122 47.8917 49.7562 47.6397C49.3002 47.3877 48.8082 47.2617 48.2802 47.2617C47.7522 47.2617 47.2602 47.3877 46.8042 47.6397C46.3602 47.8917 46.0062 48.2697 45.7422 48.7737C45.4782 49.2657 45.3462 49.8717 45.3462 50.5917C45.3462 51.6597 45.6162 52.4877 46.1562 53.0757C46.7082 53.6517 47.3982 53.9397 48.2262 53.9397ZM63.9125 53.7237L66.7205 45.6417H68.8985L65.1185 55.5597H62.6705L58.9085 45.6417H61.1045L63.9125 53.7237ZM71.4936 44.3277C71.1216 44.3277 70.8096 44.2017 70.5576 43.9497C70.3056 43.6977 70.1796 43.3857 70.1796 43.0137C70.1796 42.6417 70.3056 42.3297 70.5576 42.0777C70.8096 41.8257 71.1216 41.6997 71.4936 41.6997C71.8536 41.6997 72.1596 41.8257 72.4116 42.0777C72.6636 42.3297 72.7896 42.6417 72.7896 43.0137C72.7896 43.3857 72.6636 43.6977 72.4116 43.9497C72.1596 44.2017 71.8536 44.3277 71.4936 44.3277ZM72.5016 45.6417V55.5597H70.4496V45.6417H72.5016ZM74.5117 50.5557C74.5117 49.5597 74.7157 48.6777 75.1237 47.9097C75.5437 47.1417 76.1077 46.5477 76.8157 46.1277C77.5357 45.6957 78.3337 45.4797 79.2097 45.4797C79.8577 45.4797 80.4937 45.6237 81.1177 45.9117C81.7537 46.1877 82.2577 46.5597 82.6297 47.0277V42.2397H84.6997V55.5597H82.6297V54.0657C82.2937 54.5457 81.8257 54.9417 81.2257 55.2537C80.6377 55.5657 79.9597 55.7217 79.1917 55.7217C78.3277 55.7217 77.5357 55.5057 76.8157 55.0737C76.1077 54.6297 75.5437 54.0177 75.1237 53.2377C74.7157 52.4457 74.5117 51.5517 74.5117 50.5557ZM82.6297 50.5917C82.6297 49.9077 82.4857 49.3137 82.1977 48.8097C81.9217 48.3057 81.5557 47.9217 81.0997 47.6577C80.6437 47.3937 80.1517 47.2617 79.6237 47.2617C79.0957 47.2617 78.6037 47.3937 78.1477 47.6577C77.6917 47.9097 77.3197 48.2877 77.0317 48.7917C76.7557 49.2837 76.6177 49.8717 76.6177 50.5557C76.6177 51.2397 76.7557 51.8397 77.0317 52.3557C77.3197 52.8717 77.6917 53.2677 78.1477 53.5437C78.6157 53.8077 79.1077 53.9397 79.6237 53.9397C80.1517 53.9397 80.6437 53.8077 81.0997 53.5437C81.5557 53.2797 81.9217 52.8957 82.1977 52.3917C82.4857 51.8757 82.6297 51.2757 82.6297 50.5917ZM96.4849 50.3577C96.4849 50.7297 96.4609 51.0657 96.4129 51.3657H88.8349C88.8949 52.1577 89.1889 52.7937 89.7169 53.2737C90.2449 53.7537 90.8929 53.9937 91.6609 53.9937C92.7649 53.9937 93.5449 53.5317 94.0009 52.6077H96.2149C95.9149 53.5197 95.3689 54.2697 94.5769 54.8577C93.7969 55.4337 92.8249 55.7217 91.6609 55.7217C90.7129 55.7217 89.8609 55.5117 89.1049 55.0917C88.3609 54.6597 87.7729 54.0597 87.3409 53.2917C86.9209 52.5117 86.7109 51.6117 86.7109 50.5917C86.7109 49.5717 86.9149 48.6777 87.3229 47.9097C87.7429 47.1297 88.3249 46.5297 89.0689 46.1097C89.8249 45.6897 90.6889 45.4797 91.6609 45.4797C92.5969 45.4797 93.4309 45.6837 94.1629 46.0917C94.8949 46.4997 95.4649 47.0757 95.8729 47.8197C96.2809 48.5517 96.4849 49.3977 96.4849 50.3577ZM94.3429 49.7097C94.3309 48.9537 94.0609 48.3477 93.5329 47.8917C93.0049 47.4357 92.3509 47.2077 91.5709 47.2077C90.8629 47.2077 90.2569 47.4357 89.7529 47.8917C89.2489 48.3357 88.9489 48.9417 88.8529 49.7097H94.3429ZM102.806 55.7217C101.87 55.7217 101.024 55.5117 100.268 55.0917C99.5123 54.6597 98.9183 54.0597 98.4863 53.2917C98.0543 52.5117 97.8383 51.6117 97.8383 50.5917C97.8383 49.5837 98.0603 48.6897 98.5043 47.9097C98.9483 47.1297 99.5543 46.5297 100.322 46.1097C101.09 45.6897 101.948 45.4797 102.896 45.4797C103.844 45.4797 104.702 45.6897 105.47 46.1097C106.238 46.5297 106.844 47.1297 107.288 47.9097C107.732 48.6897 107.954 49.5837 107.954 50.5917C107.954 51.5997 107.726 52.4937 107.27 53.2737C106.814 54.0537 106.19 54.6597 105.398 55.0917C104.618 55.5117 103.754 55.7217 102.806 55.7217ZM102.806 53.9397C103.334 53.9397 103.826 53.8137 104.282 53.5617C104.75 53.3097 105.128 52.9317 105.416 52.4277C105.704 51.9237 105.848 51.3117 105.848 50.5917C105.848 49.8717 105.71 49.2657 105.434 48.7737C105.158 48.2697 104.792 47.8917 104.336 47.6397C103.88 47.3877 103.388 47.2617 102.86 47.2617C102.332 47.2617 101.84 47.3877 101.384 47.6397C100.94 47.8917 100.586 48.2697 100.322 48.7737C100.058 49.2657 99.9263 49.8717 99.9263 50.5917C99.9263 51.6597 100.196 52.4877 100.736 53.0757C101.288 53.6517 101.978 53.9397 102.806 53.9397Z" fill="#C82A9E"/>
<path d="M134.812 49.0942C136.52 50.0804 136.52 52.546 134.812 53.5323L124.026 59.7594C122.318 60.7457 120.182 59.5129 120.182 57.5404L120.182 45.0861C120.182 43.1136 122.318 41.8808 124.026 42.867L134.812 49.0942Z" fill="#0D6EFD"/>
<mask id="path-3-inside-1_604_208" fill="white">
<path d="M78.6297 30.8174C83.5574 19.8939 92.0843 10.9921 102.786 5.59928C113.487 0.206474 125.715 -1.35072 137.427 1.18786C149.139 3.72644 159.624 10.207 167.133 19.5469C174.641 28.8868 178.716 40.5203 178.679 52.5038C178.641 64.4873 174.492 76.095 166.926 85.3876C159.359 94.6801 148.833 101.095 137.106 103.56C125.378 106.025 113.16 104.391 102.493 98.9309C91.8253 93.471 83.3545 84.5158 78.4955 73.5615L79.2291 73.2361C84.0136 84.0224 92.3545 92.8403 102.858 98.2164C113.362 103.593 125.393 105.202 136.94 102.774C148.488 100.347 158.853 94.0309 166.303 84.8808C173.754 75.7308 177.839 64.3011 177.876 52.5013C177.913 40.7016 173.9 29.2465 166.507 20.0498C159.114 10.8531 148.789 4.47187 137.257 1.97222C125.725 -0.527439 113.684 1.00587 103.147 6.31598C92.6095 11.6261 84.2134 20.3914 79.3613 31.1474L78.6297 30.8174Z"/>
</mask>
<path d="M78.6297 30.8174C83.5574 19.8939 92.0843 10.9921 102.786 5.59928C113.487 0.206474 125.715 -1.35072 137.427 1.18786C149.139 3.72644 159.624 10.207 167.133 19.5469C174.641 28.8868 178.716 40.5203 178.679 52.5038C178.641 64.4873 174.492 76.095 166.926 85.3876C159.359 94.6801 148.833 101.095 137.106 103.56C125.378 106.025 113.16 104.391 102.493 98.9309C91.8253 93.471 83.3545 84.5158 78.4955 73.5615L79.2291 73.2361C84.0136 84.0224 92.3545 92.8403 102.858 98.2164C113.362 103.593 125.393 105.202 136.94 102.774C148.488 100.347 158.853 94.0309 166.303 84.8808C173.754 75.7308 177.839 64.3011 177.876 52.5013C177.913 40.7016 173.9 29.2465 166.507 20.0498C159.114 10.8531 148.789 4.47187 137.257 1.97222C125.725 -0.527439 113.684 1.00587 103.147 6.31598C92.6095 11.6261 84.2134 20.3914 79.3613 31.1474L78.6297 30.8174Z" stroke="#C82A9E" stroke-width="2.56233" stroke-dasharray="5.12 5.12" mask="url(#path-3-inside-1_604_208)"/>
</svg>
