<svg width="555" height="603" viewBox="0 0 555 603" fill="none" xmlns="http://www.w3.org/2000/svg">
<ellipse cx="94.7721" cy="597.92" rx="94.7721" ry="95.3213" fill="#F4F4F6"/>
<ellipse cx="331.703" cy="502.6" rx="63.1814" ry="63.5475" fill="#F4F4F6"/>
<path fill-rule="evenodd" clip-rule="evenodd" d="M298.978 18.0483C238.539 53.1446 217.75 130.732 252.543 191.346L378.611 410.968C385.787 423.467 376.763 439.052 362.35 439.052H332.069C296.973 439.052 268.522 467.503 268.522 502.599C268.522 537.696 296.973 566.147 332.069 566.147H456.832C463.547 566.147 469.75 569.738 473.093 575.563L505.633 632.251C540.427 692.864 617.628 713.55 678.066 678.453C738.505 643.357 759.294 565.769 724.5 505.156L471.41 64.2508C436.617 3.63756 359.416 -17.048 298.978 18.0483Z" fill="#F4F4F6"/>
</svg>
