<svg width="40" height="40" viewBox="0 0 40 40" fill="none" xmlns="http://www.w3.org/2000/svg">
<path d="M15.0926 27.6527C14.778 27.5479 14.4347 27.5723 14.1382 27.7205C13.8417 27.8688 13.6162 28.1288 13.5113 28.4433C12.4874 31.515 9.15278 32.4663 7.23993 32.7605C7.53412 30.8467 8.4855 27.5127 11.5571 26.4889C11.7129 26.4371 11.857 26.355 11.9811 26.2475C12.1052 26.1399 12.2069 26.009 12.2804 25.8621C12.3539 25.7152 12.3977 25.5553 12.4094 25.3915C12.421 25.2277 12.4003 25.0632 12.3484 24.9074C12.2964 24.7516 12.2143 24.6076 12.1067 24.4836C11.999 24.3595 11.868 24.2579 11.7211 24.1845C11.5742 24.1111 11.4143 24.0674 11.2505 24.0558C11.0866 24.0443 10.9221 24.0651 10.7664 24.1172C8.21008 24.9693 6.33218 27.0001 5.33548 29.9901C4.89205 31.3312 4.6471 32.7299 4.6084 34.1419C4.60842 34.4734 4.74012 34.7913 4.97453 35.0257C5.20895 35.2601 5.52688 35.3918 5.8584 35.3919C7.27036 35.3532 8.66908 35.1082 10.0102 34.6648C13.0001 33.6682 15.0309 31.7902 15.8831 29.2339C15.9879 28.9194 15.9635 28.5761 15.8153 28.2796C15.667 27.983 15.4071 27.7576 15.0926 27.6527Z" fill="white"/>
<path d="M35.5649 6.53431C35.488 6.00494 35.2421 5.5146 34.8639 5.13637C34.4856 4.75814 33.9953 4.51229 33.4659 4.43546C31.7024 4.17232 27.1188 4.04278 22.652 8.50941L21.2503 9.91108H11.6794C11.3509 9.91021 11.0256 9.97447 10.7221 10.1002C10.4187 10.2258 10.1432 10.4104 9.9115 10.6433L4.8581 15.6968C4.53816 16.0167 4.31107 16.4175 4.20103 16.8565C4.09099 17.2954 4.10213 17.7559 4.23327 18.189C4.36441 18.622 4.61063 19.0114 4.94567 19.3155C5.28071 19.6197 5.69201 19.8272 6.13572 19.9159L12.313 21.1514L18.849 27.6873L20.0844 33.8646C20.173 34.3084 20.3805 34.7199 20.6846 35.055C20.9887 35.3902 21.3782 35.6364 21.8113 35.7676C22.2445 35.8987 22.7051 35.9098 23.1441 35.7996C23.583 35.6895 23.9838 35.4622 24.3037 35.1421L29.3572 30.0886C29.59 29.857 29.7746 29.5815 29.9003 29.2781C30.0259 28.9747 30.0902 28.6494 30.0893 28.321V18.7499L31.4909 17.3482C35.9578 12.8814 35.8281 8.29777 35.5649 6.53431ZM11.6794 12.4111H18.7504L12.5185 18.6429L6.62599 17.4645L11.6794 12.4111ZM27.5893 28.321L22.5359 33.3744L21.3574 27.4819L27.5893 21.25L27.5893 28.321Z" fill="white"/>
</svg>
