<svg width="40" height="40" viewBox="0 0 40 40" fill="none" xmlns="http://www.w3.org/2000/svg">
<path d="M35.6512 23.8994L32.6585 15.6772C32.4312 15.0546 31.9662 14.5476 31.3654 14.2674C30.7647 13.9873 30.0774 13.9569 29.4543 14.1829L20.0882 17.5919L21.819 7.77623C21.9341 7.12324 21.7852 6.45126 21.4049 5.90811C21.0246 5.36495 20.4441 4.99511 19.7911 4.87996L11.1742 3.36079C10.8508 3.30374 10.5195 3.31093 10.1989 3.38196C9.87838 3.45299 9.57497 3.58646 9.30602 3.77476C9.03707 3.96306 8.80785 4.20249 8.63144 4.47938C8.45503 4.75627 8.33489 5.0652 8.27789 5.38853L4.49867 26.8218C4.33964 27.7429 4.36469 28.6864 4.57236 29.5978C4.78003 30.5092 5.16622 31.3704 5.70861 32.1317C6.33331 33.018 7.16189 33.7412 8.12455 34.2403C9.0872 34.7394 10.1557 34.9998 11.2401 34.9996H11.2406C11.2438 34.9996 11.2468 35 11.2499 35H33.1249C33.7877 34.9993 34.4232 34.7356 34.8919 34.267C35.3605 33.7983 35.6242 33.1628 35.6249 32.5V25.6684C35.8503 25.1019 35.8596 24.4724 35.6512 23.8994ZM11.2499 30C10.8791 30 10.5166 29.8901 10.2082 29.684C9.89988 29.478 9.65956 29.1852 9.51764 28.8426C9.37573 28.5 9.3386 28.123 9.41095 27.7592C9.48329 27.3955 9.66187 27.0614 9.92409 26.7992C10.1863 26.537 10.5204 26.3584 10.8841 26.2861C11.2478 26.2137 11.6248 26.2509 11.9674 26.3928C12.3101 26.5347 12.6029 26.775 12.8089 27.0833C13.015 27.3917 13.1249 27.7542 13.1249 28.125C13.1244 28.6221 12.9266 29.0987 12.5751 29.4502C12.2236 29.8018 11.747 29.9995 11.2499 30V30ZM33.1249 32.5H19.331L33.1249 27.4795V32.5ZM17.7269 30.4234C17.8556 30.0641 17.9538 29.6946 18.0205 29.3189L19.587 20.4348L30.3093 16.5322L33.302 24.7545L17.7269 30.4234Z" fill="white"/>
</svg>
