<svg width="40" height="40" viewBox="0 0 40 40" fill="none" xmlns="http://www.w3.org/2000/svg">
<path d="M37.5002 18.7502C37.4979 16.7617 36.707 14.8554 35.301 13.4494C33.895 12.0433 31.9886 11.2524 30.0002 11.2502H23.7528C23.6718 11.2499 15.5683 11.1424 7.85802 4.67576C7.49364 4.36959 7.04943 4.17381 6.5776 4.11142C6.10578 4.04903 5.62595 4.12262 5.19451 4.32355C4.76307 4.52448 4.39796 4.84439 4.14208 5.24568C3.8862 5.64698 3.75019 6.11298 3.75005 6.58891V30.9114C3.74714 31.3876 3.88164 31.8544 4.13743 32.2561C4.39322 32.6577 4.75944 32.977 5.19216 33.1757C5.52495 33.332 5.88801 33.4134 6.25569 33.414C6.84256 33.4128 7.41009 33.2041 7.85787 32.8247C13.7762 27.8609 19.9257 26.6441 22.5002 26.3464V31.8312C22.4997 32.2429 22.6011 32.6482 22.7953 33.0112C22.9895 33.3741 23.2706 33.6833 23.6133 33.9113L25.331 35.0565C25.6644 35.2786 26.0462 35.4175 26.4444 35.4612C26.8426 35.505 27.2455 35.4524 27.6191 35.308C27.9928 35.1635 28.3262 34.9314 28.5914 34.6311C28.8566 34.3308 29.0458 33.9713 29.143 33.5826L30.993 26.1824C32.793 25.9399 34.4442 25.0533 35.6406 23.6868C36.837 22.3203 37.4977 20.5664 37.5002 18.7502V18.7502ZM26.7176 32.9762L25.0002 31.8312V26.2502H28.3993L26.7176 32.9762ZM30.0002 23.7502H25.0002V13.7502H30.0002C31.3263 13.7502 32.5981 14.2769 33.5357 15.2146C34.4734 16.1523 35.0002 17.4241 35.0002 18.7502C35.0002 20.0762 34.4734 21.348 33.5357 22.2857C32.5981 23.2234 31.3263 23.7502 30.0002 23.7502Z" fill="white"/>
</svg>
