<svg width="63" height="63" viewBox="0 0 63 63" fill="none" xmlns="http://www.w3.org/2000/svg">
<path d="M55.7525 12.7208C52.738 12.7208 50.2854 15.1733 50.2854 18.1881V32.3699L49.2265 33.4651C48.9489 32.823 48.5462 32.2236 48.0194 31.7051C45.8235 29.5442 42.2703 29.5638 40.0982 31.7493L31.6099 40.2905L23.1214 31.7491C20.9496 29.5638 17.3962 29.5439 15.2002 31.705C14.6734 32.2234 14.271 32.8228 13.9932 33.465L12.9343 32.3698V18.1879C12.9343 15.1733 10.4817 12.7206 7.46707 12.7206C4.45241 12.7206 2 15.1733 2 18.1879V35.4895C2 37.2723 2.48255 39.0241 3.39548 40.5554L13.7043 55.7107L12.5242 62.6004H50.6955L49.5154 55.7108L59.8242 40.5555C60.7372 39.0241 61.2197 37.2723 61.2197 35.4895V18.1879C61.2197 15.1733 58.7672 12.7208 55.7525 12.7208V12.7208ZM29.8749 59.1305H16.6391L17.3608 54.9164L6.35103 38.7365C5.77445 37.7523 5.46991 36.6307 5.46991 35.4895V18.1879C5.46991 17.0867 6.36584 16.1905 7.46718 16.1905C8.56853 16.1905 9.46446 17.0866 9.46446 18.1879V33.7729L21.3042 46.0184L23.7986 43.6064L17.5031 37.0952C16.7841 36.2485 16.8316 34.9676 17.634 34.1782C18.4729 33.3526 19.8302 33.3603 20.6601 34.1951L29.8749 43.4672V59.1305ZM57.7498 35.4895C57.7498 36.6306 57.4453 37.7522 56.8687 38.7364L45.8589 54.9164L46.5807 59.1305H33.3448V43.4672L42.5595 34.1951C43.3893 33.3602 44.7467 33.3528 45.5856 34.1782C46.388 34.9676 46.4355 36.2483 45.7165 37.0952L39.421 43.6064L41.9154 46.0184L53.7553 33.773V18.1879C53.7553 17.0867 54.6512 16.1905 55.7525 16.1905C56.8539 16.1905 57.7498 17.0867 57.7498 18.1879V35.4895Z" fill="#313131"/>
<path d="M31.6099 0L35.2188 10.23H46.8971L37.4491 16.5524L41.058 26.7824L31.6099 20.4599L22.1619 26.7824L25.7707 16.5524L16.3227 10.23H28.0011L31.6099 0Z" fill="#B7509D"/>
</svg>
