<svg width="74" height="65" viewBox="0 0 74 65" fill="none" xmlns="http://www.w3.org/2000/svg">
<rect x="5" width="65" height="65" fill="white"/>
<path d="M71.8324 56.5387H67.469V27.6789C67.469 26.4838 66.4985 25.5149 65.3013 25.5149H53.3328C52.1357 25.5149 51.1652 26.4838 51.1652 27.6789V56.5387H45.2372V19.1051C45.2372 17.91 44.2667 16.941 43.0696 16.941H31.1011C29.9039 16.941 28.9334 17.91 28.9334 19.1051V56.5387H23.0055V25.3888C23.0055 24.1936 22.035 23.2247 20.8378 23.2247H8.86918C7.67203 23.2247 6.70152 24.1936 6.70152 25.3888V56.5387H2.33807C1.14092 56.5387 0.17041 57.5076 0.17041 58.7028C0.17041 59.8979 1.14092 60.8668 2.33807 60.8668H71.8324C73.0296 60.8668 74.0001 59.8979 74.0001 58.7028C74.0001 57.5076 73.0296 56.5387 71.8324 56.5387V56.5387ZM11.0368 56.5387V27.5528H18.6702V56.5387H11.0368ZM33.2686 56.5387V21.2691H40.9019V56.5387H33.2686ZM55.5005 56.5387V29.843H63.1338V56.5387H55.5005Z" fill="#313131"/>
<path d="M72.4149 11.3679C72.4868 10.4635 71.9596 9.35286 70.7525 9.07197L63.7605 7.37247C62.5986 7.08927 61.4288 7.80268 61.1466 8.96406C60.8642 10.1254 61.5768 11.2958 62.7382 11.5779L64.7158 12.0587L59.1098 15.5181L37.8536 3.41672C37.2424 3.0686 36.4997 3.03931 35.8635 3.33839L14.7346 13.2558L4.63407 6.95221C3.62028 6.31901 2.28535 6.62832 1.65243 7.64225C1.01967 8.65604 1.32869 9.99097 2.34262 10.6239L13.4422 17.551C14.065 17.9398 14.8426 17.9863 15.5074 17.6742L36.687 7.73286L58.0837 19.9143C58.6404 20.2063 59.4165 20.3577 60.2909 19.8752L67.0867 15.6814L66.6342 17.801C66.1361 20.6205 70.1274 21.4212 70.8668 18.705L72.3669 11.6799C72.3839 11.5816 72.3903 11.5954 72.4149 11.3679V11.3679Z" fill="#B7509D"/>
</svg>
