<svg width="54" height="54" viewBox="0 0 54 54" fill="none" xmlns="http://www.w3.org/2000/svg">
<path d="M19.3847 0.138433C18.7412 0.211736 17.1774 0.602686 16.4525 0.871465C13.3005 2.04432 11.0933 4.05608 8.72313 7.91671C6.70322 11.1991 4.87879 15.19 3.42087 19.5149C1.54757 25.0697 0.505032 30.3149 0.154806 35.9592C-0.342027 43.9819 2.32132 49.447 8.07969 52.2081C9.6272 52.9412 11.0933 53.3891 13.1539 53.7312C14.4001 53.9348 18.0163 53.9348 19.7105 53.7312C31.3331 52.2977 41.3105 49.0968 47.2154 44.8941C52.2408 41.3185 54.4887 36.9529 53.7964 32.1068C53.3566 29.0362 52.1512 25.7294 50.3593 22.6995C46.8652 16.7864 39.5919 9.2769 33.2308 5.00902C28.0915 1.56377 22.9195 -0.260662 19.3847 0.138433ZM12.9096 20.981C15.5729 21.4859 17.4381 23.4 17.9675 26.1855C18.1467 27.1384 18.1467 28.7348 17.9593 29.6063C17.7068 30.8199 17.096 32.0497 16.3222 32.905C15.6462 33.6543 14.3593 34.3792 13.1539 34.705C12.2172 34.9574 10.3439 34.9574 9.40729 34.705C7.0453 34.0778 5.4815 32.5466 4.75662 30.1764C4.54485 29.4841 4.52856 29.3457 4.52856 27.8959C4.52856 26.0878 4.63444 25.5421 5.2453 24.3122C5.89689 23.009 6.67064 22.2108 7.9168 21.5755C9.36657 20.8425 11.077 20.6389 12.9096 20.981ZM25.0453 24.5158C25.8191 24.6298 26.715 25.0778 27.2444 25.6154C29.1584 27.5701 29.1096 31.7728 27.1467 33.6461C26.4218 34.3384 25.8354 34.6316 24.8417 34.7864C23.791 34.9493 22.5286 34.6072 21.8037 33.9719L21.5023 33.7031L21.486 35.7719L21.4616 37.8326L20.0851 37.857C19.3277 37.8651 18.6679 37.8407 18.6272 37.8C18.5376 37.7104 18.5376 24.8416 18.6353 24.7439C18.6761 24.7031 19.3277 24.6869 20.0851 24.695L21.4616 24.7194V25.2244V25.7212L21.8037 25.4117C22.2353 25.0126 22.8625 24.695 23.4896 24.5565C24.1005 24.4181 24.3204 24.4181 25.0453 24.5158ZM45.7249 24.638C47.1584 25.0371 48.0218 25.8597 48.3068 27.0896C48.4697 27.79 48.4942 27.7819 46.9874 27.7574L45.6761 27.733L45.5295 27.3339C45.4399 27.1221 45.3096 26.8697 45.2281 26.7801C44.8453 26.3565 44.0145 26.1529 43.2734 26.3077C42.7277 26.4217 42.4019 26.7068 42.3204 27.1303C42.1738 27.9203 42.6299 28.1647 44.7883 28.4742C47.0688 28.7918 48.0218 29.2805 48.5349 30.3719C48.7141 30.7547 48.7467 30.9421 48.7467 31.5611C48.7467 32.1882 48.7141 32.3674 48.5268 32.7665C48.1114 33.6543 47.191 34.3221 45.896 34.6642C45.448 34.7783 45.0326 34.819 43.982 34.819C42.8173 34.819 42.5485 34.7864 41.9702 34.6235C40.3901 34.1755 39.3964 33.1574 39.2824 31.8624C39.2173 31.1945 39.2335 31.1864 40.7729 31.2108L42.0598 31.2353L42.1575 31.6669C42.2797 32.2371 42.4752 32.4896 42.972 32.7421C43.3141 32.9212 43.477 32.9457 44.1856 32.9457C44.829 32.9457 45.0652 32.9131 45.3177 32.7909C45.6761 32.6117 45.9367 32.2371 45.9367 31.9031C45.9367 31.2516 45.5213 31.0642 43.2897 30.6977C40.7078 30.2823 39.7222 29.5982 39.5186 28.0995C39.2824 26.4217 40.1783 25.1511 41.9458 24.6461C42.6218 24.4588 42.7847 24.4425 44.0634 24.4751C44.829 24.4914 45.4154 24.5484 45.7249 24.638ZM32.3349 28.181C32.3756 31.9276 32.3756 31.8787 32.8399 32.3104C33.4752 32.905 34.6154 32.7013 35.2182 31.8706C35.7801 31.105 35.7883 31.0724 35.8372 27.733L35.8779 24.7194H37.344H38.81L38.8344 29.5574C38.8426 33.1086 38.8263 34.4199 38.7611 34.5095C38.6878 34.5991 38.3946 34.6154 37.3521 34.5991L36.0408 34.5746L36.0163 34.0615L35.9919 33.5565L35.6091 33.8742C34.7702 34.5746 33.7602 34.9004 32.6607 34.8353C31.1458 34.7457 30.1765 34.0534 29.6308 32.6688C29.4679 32.2371 29.4516 32.0253 29.3783 28.5719C29.3376 26.5764 29.3213 24.8742 29.3458 24.809C29.3946 24.695 29.582 24.6787 30.8444 24.695L32.2942 24.7194L32.3349 28.181Z" fill="white"/>
<path d="M10.4254 23.2208C9.85529 23.3348 9.09783 23.7502 8.71502 24.1575C7.90869 25.0371 7.52588 26.3891 7.59918 28.1728C7.68063 30.3475 8.29964 31.5529 9.67611 32.2289C10.287 32.5385 10.3033 32.5385 11.2725 32.5385C12.1033 32.5303 12.3313 32.5059 12.7304 32.343C13.7485 31.9439 14.5874 30.828 14.8643 29.5249C15.0191 28.7756 15.0191 27.0081 14.8643 26.267C14.3838 23.9864 12.6327 22.7891 10.4254 23.2208Z" fill="white"/>
<path d="M23.0173 26.5602C21.9422 26.8208 21.4209 27.8308 21.4209 29.6634C21.4209 31.1376 21.763 32.0579 22.4553 32.4978C23.4815 33.1494 24.8417 32.7177 25.3223 31.6018C25.8842 30.2905 25.6562 27.8715 24.8987 27.057C24.4915 26.6254 23.6607 26.4055 23.0173 26.5602Z" fill="white"/>
</svg>
