<svg width="66" height="65" viewBox="0 0 66 65" fill="none" xmlns="http://www.w3.org/2000/svg">
<path d="M65.9028 2.10781C65.9028 0.943148 64.9195 0 63.7085 0H41.5278V8.49306C42.0781 8.19809 42.7116 8.03089 43.3855 8.03089C45.5001 8.03089 47.2156 9.67837 47.2156 11.712C47.2156 13.7437 45.5011 15.3921 43.3855 15.3921C42.7116 15.3921 42.0781 15.224 41.5278 14.931V23.4232H50.3657C50.0598 23.952 49.8847 24.5606 49.8847 25.2077C49.8847 27.2413 51.5992 28.8889 53.7153 28.8889C55.8305 28.8889 57.5448 27.2413 57.5448 25.2077C57.5448 24.5606 57.3699 23.952 57.065 23.4232H65.9028V2.10781Z" fill="#B7509D"/>
<path d="M56.2696 34.1343H44.1157C43.6901 34.1343 43.2963 34.3593 43.0809 34.7242L43.0927 34.704L43.0788 34.7264C42.9689 34.9132 42.9134 35.1243 42.9134 35.3345C42.9134 35.535 42.9646 35.7377 43.0649 35.9192L43.831 37.2986C44.0027 37.6091 44.0869 37.9356 44.0881 38.2918C44.0871 38.8423 43.8758 39.3501 43.4874 39.7407C43.097 40.129 42.5882 40.3403 42.0386 40.3424C41.4881 40.3402 40.9792 40.129 40.5876 39.7407L40.5892 39.7429C40.1997 39.3503 39.9891 38.8414 39.988 38.292C39.9891 37.9366 40.0733 37.6092 40.2445 37.2977L41.0111 35.9193C41.1119 35.7378 41.1626 35.5364 41.1626 35.3347C41.1626 35.1244 41.1071 34.9133 40.9955 34.7243C40.7795 34.3585 40.3858 34.1344 39.9608 34.1344H30.8668V29.2642C32.5103 29.2385 34.0626 28.5909 35.2255 27.4259C36.416 26.2385 37.0755 24.6457 37.0743 22.9633C37.0754 21.2787 36.4155 19.6859 35.2255 18.4995C34.0636 17.3343 32.5108 16.6878 30.8668 16.6623V8.73086C30.8663 8.06733 30.3285 7.52954 29.665 7.52954H4.52497C3.31947 7.52863 2.17526 8.00119 1.32496 8.85358C0.480554 9.69864 0.00104955 10.8583 1.73492e-06 12.0553V60.4754C-0.00104608 61.6799 0.472565 62.8236 1.32496 63.6749C2.17002 64.5188 3.32798 64.9988 4.52497 65H52.9504C54.1442 64.999 55.3028 64.5188 56.1467 63.6749C56.9992 62.8236 57.4718 61.681 57.4707 60.4754V35.3356C57.4709 34.672 56.9331 34.1343 56.2696 34.1343ZM3.7158 12.0553C3.7158 11.7779 3.84495 11.5892 3.95051 11.4835C4.05988 11.3746 4.24809 11.2444 4.52497 11.2444H27.1508V20.8847C27.1508 21.1173 27.274 21.3317 27.474 21.4501C27.5764 21.5098 27.691 21.5398 27.8063 21.5398C27.9162 21.5398 28.0255 21.5131 28.1248 21.4577L29.5037 20.6916C29.8926 20.476 30.3162 20.3661 30.7622 20.3661C31.455 20.3661 32.1074 20.6361 32.5977 21.1258C33.0884 21.6176 33.3584 22.2705 33.3584 22.963C33.3584 23.6554 33.0884 24.3074 32.5987 24.798C32.1074 25.2888 31.455 25.5587 30.7622 25.5587C30.3157 25.5587 29.8926 25.4488 29.5043 25.2332L28.1243 24.4671C28.0257 24.4117 27.9158 24.385 27.8064 24.385C27.6912 24.385 27.5764 24.4149 27.4741 24.4758C27.2741 24.5931 27.1509 24.8076 27.1509 25.0402V34.6804H21.1816C21.1934 34.532 21.1992 34.3839 21.1992 34.2377C21.1992 32.6961 20.5991 31.2483 19.5104 30.1612C18.4228 29.0719 16.9749 28.4724 15.4333 28.4724C13.8923 28.4724 12.4446 29.072 11.3574 30.1602C10.2676 31.2473 9.6675 32.6961 9.66803 34.2367C9.66803 34.3839 9.67379 34.5312 9.68558 34.6806H3.7158V12.0553ZM27.1509 61.2851H4.52497C4.24809 61.2851 4.05988 61.155 3.95313 61.0494C3.84495 60.9405 3.7158 60.7517 3.7158 60.4754V37.8481H13.3555C13.5876 37.8481 13.8026 37.7254 13.9204 37.5259C14.0383 37.3252 14.0416 37.0777 13.9286 36.8751L13.1631 35.4956C12.947 35.1061 12.8377 34.6827 12.8371 34.2377C12.8377 33.5453 13.1083 32.8925 13.5968 32.4016C14.089 31.912 14.7415 31.6409 15.4333 31.6409C16.1252 31.6409 16.7777 31.912 17.2683 32.4005C17.7586 32.8923 18.029 33.5453 18.0296 34.2365C18.029 34.6836 17.919 35.1071 17.7051 35.4944L16.938 36.8739C16.8248 37.0777 16.8282 37.3252 16.9461 37.5247C17.064 37.7252 17.2791 37.848 17.511 37.848H27.1508V43.8192C27.0024 43.8075 26.8548 43.8021 26.7086 43.8021C25.1665 43.8021 23.7187 44.4018 22.6326 45.4899C21.5423 46.5781 20.9427 48.0259 20.9438 49.5664C20.9427 51.107 21.5423 52.5558 22.6317 53.6429C23.7188 54.7323 25.1666 55.3317 26.7087 55.3317C26.8559 55.3317 27.0037 55.3264 27.1509 55.3147V61.2851ZM53.7559 60.4754C53.7559 60.7517 53.6258 60.9395 53.5191 61.0473C53.4102 61.1551 53.2224 61.2853 52.9462 61.2853H30.3205V51.645C30.3205 51.4124 30.1979 51.198 29.9973 51.0806C29.8948 51.0197 29.7801 50.99 29.665 50.99C29.5556 50.99 29.4457 51.0167 29.347 51.0721L27.966 51.8382C27.5781 52.0537 27.1551 52.1636 26.7086 52.1636C26.0168 52.1636 25.3642 51.8927 24.8736 51.4039C24.3834 50.9131 24.1129 50.2602 24.1124 49.5677C24.1129 48.8743 24.3835 48.2225 24.8731 47.7317C25.3635 47.242 26.0157 46.971 26.7087 46.9699C27.1521 46.9699 27.5755 47.0798 27.9661 47.2953L29.3466 48.0624C29.4459 48.118 29.5551 48.1447 29.6651 48.1447C29.7802 48.1447 29.895 48.1147 29.9974 48.0551C30.1974 47.9367 30.3206 47.7221 30.3206 47.4895V37.8482H36.2903C36.2786 37.9965 36.2727 38.1449 36.2727 38.292C36.2722 39.8315 36.8718 41.2793 37.9605 42.3674C39.0487 43.4578 40.497 44.0574 42.0381 44.0574C43.5791 44.0574 45.0269 43.4578 46.1152 42.3686C47.2044 41.2815 47.803 39.8337 47.803 38.2921C47.803 38.1449 47.7976 37.9977 47.786 37.8484H53.7561V60.4754H53.7559Z" fill="#313131"/>
</svg>
